####
#
# OBJ File Generated by Meshlab
#
####
# Object cheezit_edopt.obj
#
# Vertices: 8
# Faces: 12
#
####
mtllib ./cheezit_edopt.obj.mtl

vn -0.577350 0.577350 -0.577350
v -0.080000 -0.107000 -0.030500
vn -0.577350 -0.577350 -0.577350
v -0.080000 0.107000 -0.030500
vn 0.577350 -0.577350 -0.577350
v 0.080000 0.107000 -0.030500
vn 0.577350 0.577350 -0.577350
v 0.080000 -0.107000 -0.030500
vn -0.577350 -0.577350 0.577350
v -0.080000 0.107000 0.030500
vn -0.577350 0.577350 0.577350
v -0.080000 -0.107000 0.030500
vn 0.577350 0.577350 0.577350
v 0.080000 -0.107000 0.030500
vn 0.577350 -0.577350 0.577350
v 0.080000 0.107000 0.030500
# 8 vertices, 0 vertices normals


usemtl material_0
vt 0.000000 1.000000
vt 0.000000 0.000000
vt 1.000000 0.000000
f 1/1/1 2/2/2 3/3/3
vt 1.000000 1.000000
f 1/1/1 3/3/3 4/4/4

usemtl material_1
f 5/3/5 6/4/6 7/1/7
f 5/3/5 7/1/7 8/2/8

usemtl material_2
f 4/1/4 3/2/3 8/3/8
f 4/1/4 8/3/8 7/4/7

usemtl material_3
f 6/1/6 5/2/5 2/3/2
f 6/1/6 2/3/2 1/4/1

usemtl material_4
f 1/1/1 6/4/6 7/3/7
f 1/1/1 7/3/7 4/2/4

usemtl material_5
f 5/3/5 2/2/2 3/1/3
f 5/3/5 3/1/3 8/4/8
# 12 faces, 4 coords texture

# End of File
